<svg data-name="Layer 1" xmlns="http://www.w3.org/2000/svg" viewBox="0 0 200 200"><path d="M60.029 85.933l2.465-2.465 2.465 2.465-2.466 2.467zM97 48.962l-4.108-4.108-32.863 32.863 2.465 2.465 31.22-31.22 4.108 4.108 4.108-4.108 30.4 30.4 1.643-1.643-32.865-32.865z" fill="#0f1026" opacity=".15" style="isolation:isolate"/><path d="M60.029 77.717l-4.108-4.108-8.221 8.216 8.216 8.216 8.216-8.216zm41.079-32.863l4.108-4.108L97 32.53l-8.216 8.216L97 48.962zM92.892 118.8l-4.108 4.1L97 131.12l8.216-8.216L97 114.689zm41.079-32.863l4.108 4.108 8.216-8.216-8.216-8.216-8.216 8.216z" fill="#f16262"/><path d="M47.7 81.825l8.216-8.216 8.216 8.216-8.216 8.216zm41.084-41.079L97 32.53l8.216 8.216L97 48.962zm0 82.158L97 114.689l8.216 8.216L97 131.12zm41.079-41.079l8.216-8.216 8.216 8.216-8.216 8.216zm-28.755-36.971l32.863 32.863m-73.942 0l32.863-32.863m0 73.942L60.029 85.933" fill="none" stroke="#2f446a" stroke-linecap="round" stroke-linejoin="round" stroke-width="2.324"/><g><path d="M37.016 158.321a5.609 5.609 0 0 0 3.737 1.846c.959 0 1.7-.394 1.7-1.231 0-1.77-6.615-1.744-6.615-5.8 0-2.509 2.263-3.664 4.869-3.664 1.7 0 4.4.567 4.4 2.607v1.3h-2.755v-.615c0-.591-.885-.885-1.574-.885-1.106 0-1.869.392-1.869 1.131 0 1.966 6.665 1.574 6.665 5.755 0 2.359-2.09 3.835-4.821 3.835a6.879 6.879 0 0 1-5.213-2.237zM47.695 152.862a.647.647 0 0 0-.689-.443h-.27v-2.655h1.8a1.645 1.645 0 0 1 1.844 1.179l2.361 6.59a13.709 13.709 0 0 1 .468 1.8h.049a16.487 16.487 0 0 1 .443-1.8l2.361-6.59a1.661 1.661 0 0 1 1.844-1.179h1.672v2.655h-.294a.647.647 0 0 0-.689.443L55 162.305h-3.715zM65.949 149.468c2.9 0 3.861 1.77 3.861 1.77h.05v-.318c0-.567.393-1.155 1.377-1.155h2.9v2.655h-.959a.479.479 0 0 0-.541.493v8.63c0 4.3-3.344 5.927-6.615 5.927a10.005 10.005 0 0 1-4.451-1.081l.959-2.459a8.1 8.1 0 0 0 3.467.835c1.894 0 3.541-.811 3.541-3.074v-.591c0-.294.025-.663.025-.663h-.049a3.888 3.888 0 0 1-3.492 1.622c-3.59 0-5.632-2.9-5.632-6.344s1.944-6.247 5.559-6.247zm3.664 6.271c0-2.853-1.427-3.614-3.123-3.614-1.894 0-2.926 1.376-2.926 3.492 0 2.189 1.106 3.811 3.123 3.811 1.5 0 2.927-.861 2.927-3.688z" fill="#f16262"/><path d="M81.1 158.321a5.609 5.609 0 0 0 3.737 1.846c.959 0 1.7-.394 1.7-1.231 0-1.77-6.615-1.744-6.615-5.8 0-2.509 2.263-3.664 4.869-3.664 1.7 0 4.4.567 4.4 2.607v1.3h-2.754v-.615c0-.591-.885-.885-1.574-.885-1.106 0-1.869.392-1.869 1.131 0 1.966 6.665 1.574 6.665 5.755 0 2.359-2.09 3.835-4.821 3.835a6.879 6.879 0 0 1-5.213-2.237zM92.566 152.96a.482.482 0 0 0-.542-.541h-.983v-2.655h2.779c1.157 0 1.574.515 1.574 1.2v.493h.05a4.426 4.426 0 0 1 3.983-1.992c3.394 0 5.583 2.681 5.583 6.566 0 3.985-2.459 6.566-5.755 6.566a4.372 4.372 0 0 1-3.588-1.646h-.052a10.24 10.24 0 0 1 .052 1.081v5.188h-3.1zm6.123 7.008c1.722 0 3.172-1.4 3.172-3.885 0-2.385-1.278-3.935-3.124-3.935-1.622 0-3.148 1.179-3.148 3.959.001 1.943 1.034 3.862 3.1 3.862zM107.844 152.96a.481.481 0 0 0-.541-.541h-.983v-2.655h2.853c1.105 0 1.67.467 1.67 1.524v.737a5.826 5.826 0 0 1-.048.787h.048a4.317 4.317 0 0 1 3.985-3.22 4.13 4.13 0 0 1 .567.048v3.074a5.694 5.694 0 0 0-.763-.048 3.53 3.53 0 0 0-3.418 2.631 7.587 7.587 0 0 0-.27 2.04v4.968h-3.1zM122.63 149.468c3.59 0 5.557 2.631 5.557 5.951 0 .368-.072 1.155-.072 1.155h-8.656a3.6 3.6 0 0 0 3.762 3.37 5.7 5.7 0 0 0 3.516-1.4l1.3 2.165A7.632 7.632 0 0 1 123 162.6a6.427 6.427 0 0 1-6.738-6.566 6.186 6.186 0 0 1 6.368-6.566zm2.361 4.944a2.436 2.436 0 0 0-2.361-2.533 3.006 3.006 0 0 0-3.074 2.533zM137.444 154.436h.392v-.1c0-1.8-.713-2.459-2.311-2.459-.567 0-1.674.146-1.674.835v.665h-2.9v-1.328c0-2.337 3.3-2.583 4.6-2.583 4.181 0 5.41 2.189 5.41 4.992v4.674a.491.491 0 0 0 .541.541h.983v2.631h-2.8c-1.155 0-1.6-.639-1.6-1.378 0-.318.024-.541.024-.541h-.048a4.084 4.084 0 0 1-3.789 2.213c-2.237 0-4.279-1.4-4.279-3.909-.002-3.933 5.407-4.253 7.451-4.253zm-2.411 5.731c1.672 0 2.853-1.772 2.853-3.3v-.3h-.543c-1.622 0-4.205.222-4.205 1.968a1.673 1.673 0 0 0 1.895 1.632zM150.605 149.468c1.624 0 4.551.665 4.551 2.829v1.474H152.4v-.687c0-.689-1.033-.985-1.8-.985a3.888 3.888 0 0 0 .2 7.771 5.664 5.664 0 0 0 3.712-1.7l1.3 2.165a7.17 7.17 0 0 1-5.286 2.261 6.571 6.571 0 1 1 .072-13.132zM158.287 152.247h-1.624v-2.483h1.7v-3.42h3.05v3.42h2.851v2.483h-2.854v5.066a2.226 2.226 0 0 0 2.483 2.361 2.84 2.84 0 0 0 .567-.05v2.731a5.894 5.894 0 0 1-.959.072c-1.746 0-5.214-.515-5.214-4.722z" fill="#2f446a"/></g></svg>
